<?xml version="1.0" standalone="no"?>
<svg xmlns="http://www.w3.org/2000/svg" viewBox="0 0 178.948 36" width="178.948" height="36"><g fill="#ffffff" color="#ffffff" transform="translate(0 3.9999999999999982) scale(0.2800001)"><svg width="100.0" height="100.0" x="0.0" y="0.0" viewBox="0 0 100 100"><path d="M68.021,73.852c-5.825,0-10.564,4.739-10.564,10.564c0,5.826,4.739,10.563,10.564,10.563s10.564-4.737,10.564-10.563  C78.585,78.591,73.846,73.852,68.021,73.852z M68.021,89.42c-2.76,0-5.004-2.245-5.004-5.004s2.244-5.005,5.004-5.005  c2.759,0,5.005,2.246,5.005,5.005S70.779,89.42,68.021,89.42z"></path><path d="M47.951,66.229c2.297,0,4.529-0.283,6.665-0.812l3.737,8.514c1.82-1.682,4.079-2.892,6.583-3.446l-3.424-7.805  c8.455-4.757,14.179-13.817,14.179-24.191c0-1.536-1.243-2.78-2.78-2.78H22.991c-1.535,0-2.78,1.245-2.78,2.78  c0,10.374,5.725,19.434,14.179,24.191L22.44,89.919c-0.823,1.874,0.03,4.061,1.905,4.882c0.484,0.214,0.99,0.314,1.488,0.314  c1.426,0,2.786-0.828,3.396-2.22l2.109-4.806h22.894c-0.314-1.173-0.483-2.404-0.483-3.674c0-1.294,0.177-2.548,0.502-3.74H34.59  l6.695-15.259C43.421,65.945,45.653,66.229,47.951,66.229z M25.944,41.269h8.23c0.855,8.463,4.955,15.59,10.615,19.175  C34.957,59.034,27.187,51.152,25.944,41.269z"></path><path d="M30.164,26.203c0.235,0.665,0.549,1.269,0.9,1.823c0.356,0.552,0.752,1.054,1.185,1.511c0.43,0.457,0.891,0.876,1.394,1.239  c0.123,0.088,0.283,0.124,0.44,0.083c0.281-0.074,0.449-0.361,0.376-0.641l0-0.001c-0.152-0.584-0.312-1.135-0.451-1.68  c-0.136-0.543-0.257-1.072-0.34-1.584c-0.173-1.023-0.185-1.964-0.014-2.754c0.17-0.794,0.504-1.48,1.004-2.253  c0.497-0.771,1.163-1.596,1.867-2.563c0.697-0.965,1.451-2.096,1.952-3.489c0.246-0.693,0.424-1.445,0.482-2.208  c0.064-0.762,0.012-1.528-0.133-2.245c-0.293-1.442-0.932-2.67-1.69-3.705c-0.386-0.517-0.799-0.993-1.248-1.428  c-0.446-0.436-0.919-0.836-1.436-1.186c-0.122-0.082-0.278-0.113-0.431-0.073c-0.281,0.075-0.449,0.362-0.374,0.644l0.002,0.006  c0.155,0.585,0.326,1.14,0.482,1.686c0.153,0.545,0.301,1.077,0.413,1.597c0.237,1.035,0.36,2.018,0.304,2.87  c-0.056,0.858-0.266,1.565-0.637,2.311c-0.368,0.744-0.916,1.536-1.56,2.436c-0.637,0.901-1.376,1.91-1.988,3.161  c-0.304,0.624-0.567,1.312-0.739,2.045c-0.17,0.732-0.245,1.507-0.197,2.26C29.771,24.815,29.927,25.54,30.164,26.203z"></path><path d="M43.835,26.203c0.235,0.665,0.549,1.269,0.9,1.823c0.356,0.552,0.752,1.054,1.183,1.511  c0.431,0.457,0.893,0.876,1.395,1.239c0.122,0.088,0.283,0.124,0.44,0.083c0.281-0.074,0.45-0.361,0.376-0.641l-0.002-0.001  c-0.151-0.584-0.311-1.135-0.45-1.68c-0.135-0.543-0.258-1.072-0.34-1.584c-0.173-1.023-0.185-1.964-0.013-2.754  c0.169-0.794,0.503-1.48,1.003-2.253c0.496-0.771,1.162-1.596,1.867-2.563c0.695-0.965,1.45-2.096,1.95-3.489  c0.247-0.693,0.425-1.445,0.483-2.208c0.063-0.762,0.012-1.528-0.133-2.245c-0.294-1.442-0.932-2.67-1.69-3.705  c-0.387-0.517-0.799-0.993-1.248-1.428c-0.447-0.436-0.919-0.836-1.436-1.186C48,5.039,47.844,5.007,47.691,5.048  c-0.281,0.075-0.448,0.362-0.374,0.644l0.001,0.006c0.155,0.585,0.326,1.14,0.483,1.686c0.152,0.545,0.299,1.077,0.413,1.597  c0.235,1.035,0.358,2.018,0.304,2.87c-0.057,0.858-0.266,1.565-0.638,2.311c-0.367,0.744-0.915,1.536-1.559,2.436  c-0.638,0.901-1.376,1.91-1.989,3.161c-0.303,0.624-0.567,1.312-0.739,2.045c-0.171,0.732-0.245,1.507-0.198,2.26  C43.443,24.815,43.598,25.54,43.835,26.203z"></path><path d="M57.507,26.203c0.234,0.665,0.549,1.27,0.9,1.823c0.355,0.552,0.752,1.054,1.184,1.511c0.43,0.457,0.891,0.876,1.394,1.239  c0.122,0.088,0.283,0.124,0.44,0.083c0.28-0.074,0.448-0.361,0.376-0.641L61.8,30.216c-0.153-0.584-0.313-1.135-0.451-1.68  c-0.136-0.543-0.257-1.071-0.34-1.584c-0.173-1.023-0.186-1.964-0.013-2.754c0.168-0.794,0.504-1.48,1.002-2.253  c0.498-0.771,1.163-1.596,1.867-2.563c0.697-0.965,1.452-2.096,1.952-3.489c0.246-0.693,0.425-1.445,0.483-2.208  c0.063-0.762,0.012-1.528-0.135-2.245c-0.292-1.443-0.931-2.671-1.688-3.706c-0.387-0.517-0.801-0.993-1.249-1.428  c-0.447-0.436-0.919-0.836-1.436-1.186c-0.121-0.082-0.277-0.113-0.43-0.073c-0.281,0.075-0.449,0.362-0.374,0.644l0.001,0.006  c0.155,0.584,0.326,1.14,0.482,1.686c0.153,0.545,0.3,1.077,0.412,1.597c0.237,1.035,0.359,2.018,0.306,2.87  c-0.058,0.858-0.267,1.565-0.638,2.311c-0.367,0.744-0.915,1.536-1.561,2.436c-0.638,0.901-1.377,1.909-1.988,3.16  c-0.305,0.624-0.566,1.312-0.739,2.045c-0.169,0.732-0.244,1.507-0.196,2.26C57.113,24.815,57.27,25.54,57.507,26.203z"></path></svg></g><path fill="#ffffff" fill-rule="nonzero" d="M2.81 21.19L0.12 21.19Q0 21.19 0 21.07L0 21.07L0.05 4.58Q0.05 4.49 0.14 4.49L0.14 4.49L4.75 4.49Q6.96 4.49 8.24 5.83Q9.53 7.18 9.53 9.48L9.53 9.48Q9.53 11.18 8.86 12.43Q8.18 13.68 7.10 14.35Q6.02 15.02 4.75 15.02L4.75 15.02L2.93 15.02L2.93 21.07Q2.93 21.19 2.81 21.19L2.81 21.19ZM2.93 7.37L2.93 12.12L4.75 12.12Q5.52 12.12 6.08 11.39Q6.65 10.66 6.65 9.48L6.65 9.48Q6.65 8.54 6.14 7.94Q5.64 7.34 4.75 7.34L4.75 7.34L2.93 7.37ZM8.95 21.07L8.95 21.07L11.93 4.58Q11.95 4.49 12.05 4.49L12.05 4.49L15.53 4.49Q15.62 4.49 15.65 4.58L15.65 4.58L18.50 21.07Q18.53 21.19 18.41 21.19L18.41 21.19L15.74 21.19Q15.65 21.19 15.62 21.07L15.62 21.07L15.36 19.32L12.10 19.32L11.83 21.07Q11.81 21.19 11.71 21.19L11.71 21.19L9.05 21.19Q8.95 21.19 8.95 21.07ZM13.66 10.01L12.58 16.75L14.88 16.75L13.90 10.01L13.75 9.12L13.66 10.01ZM22.82 21.19L20.11 21.19Q20.02 21.19 20.02 21.07L20.02 21.07L20.06 4.58Q20.06 4.49 20.16 4.49L20.16 4.49L25.01 4.49Q26.30 4.49 27.40 5.12Q28.49 5.76 29.14 6.83Q29.78 7.90 29.78 9.24L29.78 9.24Q29.78 10.13 29.52 10.84Q29.26 11.54 28.90 12.04Q28.54 12.53 28.25 12.77L28.25 12.77Q29.54 14.21 29.54 16.15L29.54 16.15L29.57 21.07Q29.57 21.19 29.45 21.19L29.45 21.19L26.74 21.19Q26.64 21.19 26.64 21.12L26.64 21.12L26.64 16.15Q26.64 15.29 26.03 14.65Q25.42 14.02 24.53 14.02L24.53 14.02L22.94 14.02L22.92 21.07Q22.92 21.19 22.82 21.19L22.82 21.19ZM22.94 7.37L22.94 11.14L25.01 11.14Q25.75 11.14 26.33 10.58Q26.90 10.03 26.90 9.24L26.90 9.24Q26.90 8.47 26.34 7.92Q25.78 7.37 25.01 7.37L25.01 7.37L22.94 7.37ZM34.39 21.19L31.68 21.19Q31.58 21.19 31.58 21.07L31.58 21.07L31.63 4.58Q31.63 4.49 31.73 4.49L31.73 4.49L36.58 4.49Q37.87 4.49 38.96 5.12Q40.06 5.76 40.70 6.83Q41.35 7.90 41.35 9.24L41.35 9.24Q41.35 10.13 41.09 10.84Q40.82 11.54 40.46 12.04Q40.10 12.53 39.82 12.77L39.82 12.77Q41.11 14.21 41.11 16.15L41.11 16.15L41.14 21.07Q41.14 21.19 41.02 21.19L41.02 21.19L38.30 21.19Q38.21 21.19 38.21 21.12L38.21 21.12L38.21 16.15Q38.21 15.29 37.60 14.65Q36.98 14.02 36.10 14.02L36.10 14.02L34.51 14.02L34.49 21.07Q34.49 21.19 34.39 21.19L34.39 21.19ZM34.51 7.37L34.51 11.14L36.58 11.14Q37.32 11.14 37.90 10.58Q38.47 10.03 38.47 9.24L38.47 9.24Q38.47 8.47 37.91 7.92Q37.34 7.37 36.58 7.37L36.58 7.37L34.51 7.37ZM45.98 21.19L43.27 21.19Q43.15 21.19 43.15 21.07L43.15 21.07L43.18 4.58Q43.18 4.49 43.27 4.49L43.27 4.49L45.96 4.49Q46.06 4.49 46.06 4.58L46.06 4.58L46.08 21.07Q46.08 21.19 45.98 21.19L45.98 21.19ZM56.28 21.19L48.53 21.19Q48.43 21.19 48.43 21.07L48.43 21.07L48.46 4.61Q48.46 4.49 48.58 4.49L48.58 4.49L51.24 4.49Q51.36 4.49 51.36 4.61L51.36 4.61L51.34 18.24L56.28 18.24Q56.40 18.24 56.40 18.36L56.40 18.36L56.40 21.07Q56.40 21.19 56.28 21.19L56.28 21.19ZM65.81 21.19L58.06 21.19Q57.96 21.19 57.96 21.07L57.96 21.07L57.98 4.61Q57.98 4.49 58.10 4.49L58.10 4.49L60.77 4.49Q60.89 4.49 60.89 4.61L60.89 4.61L60.86 18.24L65.81 18.24Q65.93 18.24 65.93 18.36L65.93 18.36L65.93 21.07Q65.93 21.19 65.81 21.19L65.81 21.19ZM66.67 21.07L66.67 21.07L69.65 4.58Q69.67 4.49 69.77 4.49L69.77 4.49L73.25 4.49Q73.34 4.49 73.37 4.58L73.37 4.58L76.22 21.07Q76.25 21.19 76.13 21.19L76.13 21.19L73.46 21.19Q73.37 21.19 73.34 21.07L73.34 21.07L73.08 19.32L69.82 19.32L69.55 21.07Q69.53 21.19 69.43 21.19L69.43 21.19L66.77 21.19Q66.67 21.19 66.67 21.07ZM71.38 10.01L70.30 16.75L72.60 16.75L71.62 10.01L71.47 9.12L71.38 10.01ZM85.94 21.43L85.94 21.43Q84.62 21.43 83.56 20.77Q82.49 20.11 81.86 19.01Q81.24 17.90 81.24 16.54L81.24 16.54L81.26 9.05Q81.26 7.73 81.88 6.64Q82.49 5.54 83.56 4.88Q84.62 4.22 85.94 4.22L85.94 4.22Q87.26 4.22 88.32 4.87Q89.38 5.52 90 6.61Q90.62 7.70 90.62 9.05L90.62 9.05L90.62 10.15Q90.62 10.25 90.53 10.25L90.53 10.25L87.84 10.25Q87.74 10.25 87.74 10.15L87.74 10.15L87.74 9.05Q87.74 8.26 87.23 7.68Q86.71 7.10 85.94 7.10L85.94 7.10Q85.08 7.10 84.62 7.69Q84.17 8.28 84.17 9.05L84.17 9.05L84.17 16.54Q84.17 17.42 84.68 17.98Q85.20 18.53 85.94 18.53L85.94 18.53Q86.71 18.53 87.23 17.92Q87.74 17.30 87.74 16.54L87.74 16.54L87.74 15.43Q87.74 15.34 87.84 15.34L87.84 15.34L90.55 15.34Q90.65 15.34 90.65 15.43L90.65 15.43L90.65 16.54Q90.65 17.90 90.01 19.01Q89.38 20.11 88.32 20.77Q87.26 21.43 85.94 21.43ZM91.15 21.07L91.15 21.07L94.13 4.58Q94.15 4.49 94.25 4.49L94.25 4.49L97.73 4.49Q97.82 4.49 97.85 4.58L97.85 4.58L100.70 21.07Q100.73 21.19 100.61 21.19L100.61 21.19L97.94 21.19Q97.85 21.19 97.82 21.07L97.82 21.07L97.56 19.32L94.30 19.32L94.03 21.07Q94.01 21.19 93.91 21.19L93.91 21.19L91.25 21.19Q91.15 21.19 91.15 21.07ZM95.86 10.01L94.78 16.75L97.08 16.75L96.10 10.01L95.95 9.12L95.86 10.01ZM104.83 21.19L102.43 21.19Q102.24 21.19 102.24 21.02L102.24 21.02L102.22 4.68Q102.22 4.49 102.41 4.49L102.41 4.49L104.57 4.49L108.62 13.94L108.50 4.68Q108.50 4.49 108.72 4.49L108.72 4.49L111.10 4.49Q111.24 4.49 111.24 4.68L111.24 4.68L111.26 21.05Q111.26 21.19 111.14 21.19L111.14 21.19L109.03 21.19L104.88 12.36L105.05 21Q105.05 21.19 104.83 21.19L104.83 21.19ZM108.58 3.12L108.58 3.12Q107.90 3.12 107.34 2.87Q106.78 2.62 106.32 2.36Q105.86 2.11 105.46 2.11L105.46 2.11Q105 2.11 104.76 2.34Q104.52 2.57 104.52 2.90L104.52 2.90Q104.52 3 104.42 3L104.42 3L102.26 3Q102.17 3 102.17 2.90L102.17 2.90Q102.17 2.28 102.54 1.62Q102.91 0.96 103.60 0.50Q104.28 0.05 105.24 0.05L105.24 0.05Q105.94 0.05 106.46 0.28Q106.99 0.50 107.41 0.74Q107.83 0.98 108.14 0.98L108.14 0.98Q108.48 0.98 108.73 0.77Q108.98 0.55 108.98 0.10L108.98 0.10Q108.98 0 109.08 0L109.08 0L111.24 0Q111.34 0 111.34 0.10L111.34 0.10Q111.34 1.08 110.94 1.75Q110.54 2.42 109.91 2.77Q109.27 3.12 108.58 3.12ZM112.54 21.07L112.54 21.07L115.51 4.58Q115.54 4.49 115.63 4.49L115.63 4.49L119.11 4.49Q119.21 4.49 119.23 4.58L119.23 4.58L122.09 21.07Q122.11 21.19 121.99 21.19L121.99 21.19L119.33 21.19Q119.23 21.19 119.21 21.07L119.21 21.07L118.94 19.32L115.68 19.32L115.42 21.07Q115.39 21.19 115.30 21.19L115.30 21.19L112.63 21.19Q112.54 21.19 112.54 21.07ZM117.24 10.01L116.16 16.75L118.46 16.75L117.48 10.01L117.34 9.12L117.24 10.01ZM128.02 21.17L123.72 21.19Q123.60 21.19 123.60 21.07L123.60 21.07L123.65 4.58Q123.65 4.49 123.74 4.49L123.74 4.49L128.23 4.46Q129.55 4.44 130.64 5.09Q131.74 5.74 132.38 6.83Q133.03 7.92 133.03 9.24L133.03 9.24L133.03 16.13Q133.03 17.52 132.36 18.66Q131.69 19.80 130.56 20.47Q129.43 21.14 128.02 21.17L128.02 21.17ZM126.55 7.37L126.53 18.24L128.02 18.24Q128.90 18.24 129.52 17.62Q130.13 16.99 130.13 16.13L130.13 16.13L130.13 9.22Q130.13 8.45 129.56 7.88Q129 7.32 128.23 7.34L128.23 7.34L126.55 7.37ZM133.39 21.07L133.39 21.07L136.37 4.58Q136.39 4.49 136.49 4.49L136.49 4.49L139.97 4.49Q140.06 4.49 140.09 4.58L140.09 4.58L142.94 21.07Q142.97 21.19 142.85 21.19L142.85 21.19L140.18 21.19Q140.09 21.19 140.06 21.07L140.06 21.07L139.80 19.32L136.54 19.32L136.27 21.07Q136.25 21.19 136.15 21.19L136.15 21.19L133.49 21.19Q133.39 21.19 133.39 21.07ZM138.10 10.01L137.02 16.75L139.32 16.75L138.34 10.01L138.19 9.12L138.10 10.01Z" transform="translate(36, 7.404)"></path></svg>