<svg id="Layer_35" enable-background="new 0 0 64 64" height="512" viewBox="0 0 64 64" width="512" xmlns="http://www.w3.org/2000/svg"><path d="m27 2h4v4h-4z" fill="#a0d468"/><path d="m33 6v16.5.01c-.1.06-.19.14-.27.22-.25.25-.45.56-.57.9l-3.16 2.37-4-3v-5-4-4-4h2 4z" fill="#b4dd7f"/><path d="m45.93 59.63 1.82-11.63h2.25v6 4 4h-7c1.41 0 2.64-1 2.93-2.37z" fill="#d3a06c"/><path d="m62 44v18h-4v-4-4-6c2.21 0 4-1.79 4-4z" fill="#d3a06c"/><path d="m50 54h8v4h-8z" fill="#b27946"/><path d="m47.75 48 .5-3.21c.1-.45.52-.79.98-.79h.78 1.99c3.31 0 6-2.69 6-6v-10.36-5.64c0-1.1.45-2.1 1.17-2.83.73-.72 1.73-1.17 2.83-1.17v25 1c0 2.21-1.79 4-4 4h-8z" fill="#b27946"/><path d="m21 62h-19v-14h7.7 2.3 2.77c.46 0 .88.34.98.79l2.32 10.84c.29 1.37 1.52 2.37 2.93 2.37z" fill="#aab2bd"/><path d="m14.8 42c3.26.02 6.13 2.34 6.81 5.53l2.32 10.84c.17.78.03 1.59-.41 2.26s-1.11 1.14-1.89 1.3c-.21.05-.42.07-.63.07-1.41 0-2.64-1-2.93-2.37l-2.32-10.84c-.1-.45-.52-.79-.98-.79h-2.77-2.3c-1.81 0-3.59-.78-4.65-2.25-.81-1.13-1.15-2.46-1.03-3.75h9.98z" fill="#cf9e76"/><path d="m49.2 38h8.8c0 3.31-2.69 6-6 6h-1.99-.78c-.46 0-.88.34-.98.79l-.5 3.21-1.82 11.63c-.29 1.37-1.52 2.37-2.93 2.37-.21 0-.42-.02-.63-.07-.78-.16-1.45-.63-1.89-1.3s-.58-1.48-.41-2.26l2.32-14.84c.68-3.19 3.55-5.51 6.81-5.53z" fill="#838f9b"/><path d="m58 27.64v10.36h-8.8l-1.88-9.39c-.19-.94-1.01-1.61-1.96-1.61-.74 0-7.2 0-10.86 0-1.38 0-2.5-1.12-2.5-2.5 0-.31.05-.6.16-.87.12-.34.32-.65.57-.9.08-.08.17-.16.27-.22v-.01c.41-.31.94-.5 1.5-.5h13.5 1 1.36c3.54 0 6.62 2.32 7.64 5.64z" fill="#b4dd7f"/><path d="m32 33.04c0 1.63-1.33 2.96-2.96 2.96h-.47c-.38 0-.75-.07-1.1-.21l-9.47-3.79h-1l-3 10h-9.98c.02-.17.04-.34.07-.5l1.69-8.97c.71-3.79 4.01-6.53 7.86-6.53h1.36 4l10 3.85 1.1.42c1.14.44 1.9 1.54 1.9 2.77z" fill="#fcd770"/><circle cx="15" cy="20" fill="#f0d0b4" r="6"/><circle cx="49" cy="16" fill="#f0d0b4" r="6"/><path d="m62 17c-2.757 0-5 2.243-5 5v1.919c-1.003-1.098-2.263-1.934-3.68-2.422 1.629-1.283 2.68-3.268 2.68-5.497 0-3.86-3.141-7-7-7s-7 3.14-7 7c0 1.958.81 3.728 2.111 5h-9.611c-.171 0-.335.027-.5.051v-16.051h-2v-2h2v-2h-10v2h2v2h-2v18.5l4 3v1.89l-8.32-3.2c1.42-1.282 2.32-3.13 2.32-5.19 0-3.86-3.141-7-7-7s-7 3.14-7 7c0 2.233 1.055 4.22 2.688 5.503-2.979 1.036-5.286 3.596-5.894 6.839l-1.683 8.973c-.331 1.765.07 3.546 1.129 5.016.172.238.365.459.568.669h-3.808v16h19.999c.28 0 .561-.029.836-.088 1.047-.224 1.943-.842 2.524-1.74.58-.897.776-1.968.551-3.012l-2.321-10.836c-.745-3.47-3.748-6.045-7.252-6.3l2.407-8.024 9.354 3.717c.471.188.966.283 1.473.283h.465c2.186 0 3.964-1.778 3.964-3.964 0-1.628-1.021-3.116-2.541-3.7l-.459-.177v-2.659l1.195-.896c.465 1.387 1.761 2.396 3.302 2.396h10.864c.475 0 .887.338.979.804l1.66 8.296c-3.214.51-5.893 2.98-6.6 6.279l-2.311 14.78c-.226 1.046-.029 2.116.551 3.013.581.898 1.478 1.516 2.527 1.741.273.058.553.087.833.087h8v-4h6v4h6v-19-1-26zm-52 3c0-2.757 2.243-5 5-5s5 2.243 5 5-2.243 5-5 5-5-2.243-5-5zm-7 29h6.698l5.069.001 2.321 10.837c.09.418.251.806.459 1.162h-14.547zm17.634-1.257 2.321 10.837c.112.522.015 1.057-.275 1.505-.29.449-.739.758-1.262.87-1.047.225-2.146-.483-2.374-1.537l-2.321-10.838c-.199-.915-1.021-1.58-1.956-1.58h-2.767-2.302c-1.573 0-3.007-.687-3.835-1.838-.47-.652-.731-1.395-.815-2.162h8.945l.802.003c2.796.013 5.252 2.007 5.839 4.74zm10.366-14.707c0 1.083-.881 1.964-1.964 1.964h-.465c-.251 0-.497-.047-.73-.14l-9.649-3.86h-1.937l-3 10h-8.051l1.555-8.29c.621-3.309 3.514-5.71 6.881-5.71h5.175l10.927 4.203c.752.289 1.258 1.026 1.258 1.833zm13-17.036c0-2.757 2.243-5 5-5s5 2.243 5 5-2.243 5-5 5-5-2.243-5-5zm-16-13h2v2h-2zm-2 16h2v-2h-2v-2h4v-2h-4v-2h2v-2h-2v-2h6v15.058c-.261.267-.472.581-.637.92l-2.363 1.772-3-2.25zm19.361 7h-10.864c-.825 0-1.497-.673-1.497-1.5s.673-1.5 1.5-1.5h15.86c3.045 0 5.691 1.929 6.64 4.808v9.195h-6.98l-1.718-8.591c-.279-1.397-1.516-2.412-2.941-2.412zm-4.041 34.085c-.29-.448-.388-.982-.265-1.561l2.311-14.781c.587-2.733 3.043-4.728 5.839-4.741h7.694c-.466 2.279-2.486 3.998-4.899 3.998h-1.987-.779c-.936 0-1.758.665-1.967 1.637l-2.311 14.782c-.197.916-1.018 1.581-1.955 1.581-.141 0-.282-.015-.416-.043-.525-.113-.975-.422-1.265-.872zm5.124.915c.217-.37.384-.776.478-1.217l1.686-10.783h.392v12zm4.556-12h6v4h-6zm0 8v-2h6v2zm8 4v-12.101c.743-.152 1.416-.482 2-.924v13.025zm2-17c0 1.654-1.346 3-3 3h-9.079l.313-2h.779 1.987c3.859 0 7-3.14 7-7v-16c0-1.304.836-2.416 2-2.829v23.829z"/></svg>